#N canvas 30 0 1032 569 12;
#X floatatom 192 300 5 0 0 0 - - -;
#X obj 222 353 delread~ fbcomb;
#X obj 333 322 delwrite~ fbcomb 5000;
#X obj 280 217 *~;
#X obj 332 266 +~;
#X obj 202 411 out~;
#X obj 406 219 *~;
#X obj 406 26 tgl 15 0 empty empty empty 17 7 0 10 -262144 -1 -1 0
1;
#X obj 406 84 bng 15 250 50 0 empty empty empty 17 7 0 10 -262144 -1
-1;
#X obj 406 114 tabplay~ imp;
#N canvas 0 50 450 250 (subpatch) 0;
#X array imp 2 float 3;
#A 0 1 0;
#X coords 0 1 2 -1 200 140 1;
#X restore 701 26 graph;
#X msg 699 188 \; imp 0 1 0;
#X obj 489 144 tgl 15 0 empty empty empty 17 7 0 10 -262144 -1 -1 0
1;
#X obj 489 172 pack 0 50;
#X obj 489 197 line~;
#X obj 299 132 pack 0 50;
#X obj 299 161 line~;
#X obj 406 52 metro 1000;
#X text 437 24 input signal;
#X text 360 264 sum of the original input and the delay's output;
#X text 40 216 Output is multiplied by feedback;
#X text 64 303 delay time in ms;
#X text 495 322 K delay lenght in ms;
#X floatatom 299 70 5 0 9 0 - - -;
#X obj 299 100 / 10;
#X obj 333 293 hip~ 10;
#X text 46 19 Feedback comb filter;
#X text 770 486 https://n1n4-303.github.io/;
#X text 770 464 Tutorial here:;
#X connect 0 0 1 0;
#X connect 1 0 3 0;
#X connect 1 0 5 1;
#X connect 3 0 4 0;
#X connect 4 0 25 0;
#X connect 6 0 4 1;
#X connect 7 0 17 0;
#X connect 8 0 9 0;
#X connect 9 0 6 0;
#X connect 12 0 13 0;
#X connect 13 0 14 0;
#X connect 14 0 6 1;
#X connect 15 0 16 0;
#X connect 16 0 3 1;
#X connect 17 0 8 0;
#X connect 23 0 24 0;
#X connect 24 0 15 0;
#X connect 25 0 2 0;
