#N canvas 279 67 714 528 12;
#X floatatom 219 346 5 0 0 0 - - -;
#X obj 122 373 +~;
#X obj 121 252 hip~ 10;
#X obj 82 418 out~;
#X text 202 428 Feedforward comb filter;
#N canvas 0 50 450 250 (subpatch) 0;
#X array impulse 2 float 3;
#A 0 1 0;
#X coords 0 1 2 -1 200 140 1 0 0;
#X restore 311 49 graph;
#X msg 309 211 \; impulse 0 1 0;
#X obj 121 214 *~;
#X obj 121 21 tgl 15 0 empty empty empty 17 7 0 10 -262144 -1 -1 0
1;
#X obj 121 79 bng 15 250 50 0 empty empty empty 17 7 0 10 -262144 -1
-1;
#X obj 204 139 tgl 15 0 empty empty empty 17 7 0 10 -262144 -1 -1 0
1;
#X obj 204 167 pack 0 50;
#X obj 204 192 line~;
#X obj 121 47 metro 1000;
#X obj 121 109 tabplay~ impulse;
#X text 152 19 impulse;
#X obj 143 313 delwrite~ forward 5000;
#X obj 219 372 delread~ forward;
#X text 473 473 https://n1n4-303.github.io/;
#X text 477 448 Tutorial here;
#X connect 0 0 17 0;
#X connect 1 0 3 1;
#X connect 2 0 1 0;
#X connect 2 0 16 0;
#X connect 7 0 2 0;
#X connect 8 0 13 0;
#X connect 9 0 14 0;
#X connect 10 0 11 0;
#X connect 11 0 12 0;
#X connect 12 0 7 1;
#X connect 13 0 9 0;
#X connect 14 0 7 0;
#X connect 17 0 1 1;
