#N canvas 36 92 717 419 12;
#X obj 243 325 dac~;
#X obj 304 276 *~;
#X obj 454 213 line~;
#X floatatom 454 108 5 0 300 0 - - -;
#X obj 454 185 pack 0 50;
#X obj 454 244 *~;
#X text 286 7 Master output;
#X text 82 78 Left lvl;
#X text 196 78 Center lvl;
#X text 315 78 Right lvl;
#X obj 180 271 *~;
#X obj 210 110 inlet~;
#X obj 96 110 inlet~;
#X obj 317 110 inlet~;
#X obj 146 181 +~;
#X obj 259 180 +~;
#X obj 454 156 / 100;
#X obj 474 338 s~ lvlR;
#X obj 75 329 s~ lvlL;
#X connect 1 0 0 1;
#X connect 1 0 17 0;
#X connect 2 0 5 0;
#X connect 2 0 5 1;
#X connect 3 0 16 0;
#X connect 4 0 2 0;
#X connect 5 0 1 1;
#X connect 5 0 10 1;
#X connect 10 0 0 0;
#X connect 10 0 18 0;
#X connect 11 0 14 1;
#X connect 11 0 15 0;
#X connect 12 0 14 0;
#X connect 13 0 15 1;
#X connect 14 0 10 0;
#X connect 15 0 1 0;
#X connect 16 0 4 0;
#X coords 0 -1 1 1 85 55 1 450 80;
